<svg width="20" height="20" viewBox="0 0 20 20" fill="none" xmlns="http://www.w3.org/2000/svg">
<g clip-path="url(#clip0_82_644)">
<path d="M16.6665 3.3335H3.33317C2.40817 3.3335 1.67484 4.07516 1.67484 5.00016L1.6665 15.0002C1.6665 15.9252 2.40817 16.6668 3.33317 16.6668H16.6665C17.5915 16.6668 18.3332 15.9252 18.3332 15.0002V5.00016C18.3332 4.07516 17.5915 3.3335 16.6665 3.3335ZM16.6665 14.0002C16.6665 14.5524 16.2188 15.0002 15.6665 15.0002H4.33317C3.78088 15.0002 3.33317 14.5524 3.33317 14.0002V11.0002C3.33317 10.4479 3.78089 10.0002 4.33317 10.0002H15.6665C16.2188 10.0002 16.6665 10.4479 16.6665 11.0002V14.0002ZM16.6665 5.8335C16.6665 6.29373 16.2934 6.66683 15.8332 6.66683H4.1665C3.70627 6.66683 3.33317 6.29373 3.33317 5.8335C3.33317 5.37326 3.70627 5.00016 4.1665 5.00016H15.8332C16.2934 5.00016 16.6665 5.37326 16.6665 5.8335Z" fill="#A04D31"/>
</g>
<defs>
<clipPath id="clip0_82_644">
<rect width="20" height="20" fill="white"/>
</clipPath>
</defs>
</svg>
